<?xml version="1.0" encoding="utf-8"?>
<!-- Generator: Adobe Illustrator 15.0.0, SVG Export Plug-In . SVG Version: 6.00 Build 0)  -->
<!DOCTYPE svg PUBLIC "-//W3C//DTD SVG 1.1//EN" "http://www.w3.org/Graphics/SVG/1.1/DTD/svg11.dtd">
<svg version="1.1" id="Layer_1" xmlns="http://www.w3.org/2000/svg" xmlns:xlink="http://www.w3.org/1999/xlink" x="0px" y="0px"
	 width="35px" height="50px" viewBox="0 0 35 50" enable-background="new 0 0 35 50" xml:space="preserve">
<path fill="#288DE2" d="M0.614,0.5v41.812h33.501V0.5H0.614z M33.115,6.312v2H8V4.531H7v3.781H1.614v-2H33.115z M8,32.312v-2h25.115
	v2H8z M33.115,33.312v2H8v-2H33.115z M8,29.312v-2h25.115v2H8z M8,26.312v-2h25.115v2H8z M8,23.312v-2h25.115v2H8z M8,20.312v-2
	h25.115v2H8z M8,17.312v-2h25.115v2H8z M8,14.312v-2h25.115v2H8z M8,11.312v-2h25.115v2H8z M7,12.312v2H1.614v-2H7z M1.614,11.312
	v-2H7v2H1.614z M7,15.312v2H1.614v-2H7z M7,18.312v2H1.614v-2H7z M7,21.312v2H1.614v-2H7z M7,24.312v2H1.614v-2H7z M7,27.312v2
	H1.614v-2H7z M7,30.312v2H1.614v-2H7z M7,33.312v2H1.614v-2H7z M1.614,36.312H7v5H1.614V36.312z M8,41.312v-5h25.115v5H8z"/>
<circle fill="#288DE2" cx="4.411" cy="10.312" r="0.677"/>
<circle fill="#288DE2" cx="4.453" cy="22.312" r="0.677"/>
<circle fill="#288DE2" cx="4.411" cy="34.323" r="0.677"/>
</svg>
