<?xml version="1.0" encoding="utf-8"?>
<!-- Generator: Adobe Illustrator 15.0.0, SVG Export Plug-In . SVG Version: 6.00 Build 0)  -->
<!DOCTYPE svg PUBLIC "-//W3C//DTD SVG 1.1//EN" "http://www.w3.org/Graphics/SVG/1.1/DTD/svg11.dtd">
<svg version="1.1" id="Layer_1" xmlns="http://www.w3.org/2000/svg" xmlns:xlink="http://www.w3.org/1999/xlink" x="0px" y="0px"
	 width="85px" height="70px" viewBox="0 0 85 70" enable-background="new 0 0 85 70" xml:space="preserve">
<path fill="none" stroke="#FFFFFF" stroke-width="2" stroke-miterlimit="10" d="M61.246,31.901c0.373-1.206,0.564-2.496,0.564-3.821
	c0-7.227-5.854-13.083-13.082-13.083c-2.078,0-4.043,0.481-5.795,1.345c-2.34-6.948-8.906-11.948-16.643-11.948
	c-9.701,0-17.567,7.867-17.567,17.567c0,2.876,0.69,5.588,1.913,7.981C5.525,32.411,2,38.031,2,44.091
	c0,8.436,6.834,15.656,15.271,15.656h41.01c7.562,0,13.698-6.518,13.698-14.083C71.98,39.117,67.379,33.257,61.246,31.901z"/>
<path fill="none" stroke="#FFFFFF" stroke-width="1.5" stroke-miterlimit="10" d="M48.625,29.267
	c-0.075-0.109-0.15-0.217-0.228-0.326c-0.003-0.005-0.009-0.012-0.012-0.017c-1.743-2.454-4.156-4.287-6.894-5.328
	c-0.002-0.001-0.006-0.002-0.012-0.003c-0.131-0.052-0.266-0.098-0.396-0.144c-0.089-0.031-0.175-0.062-0.262-0.091
	c-0.045-0.016-0.09-0.028-0.133-0.042c-3.956-1.269-8.289-0.839-11.946,1.215c-0.046,0.023-0.086,0.048-0.129,0.072
	c-0.108,0.064-0.222,0.128-0.327,0.196c-0.121,0.071-0.239,0.146-0.355,0.22c-0.032,0.021-0.068,0.043-0.099,0.064
	c-3.339,2.179-5.675,5.59-6.497,9.472c-0.006,0.02-0.011,0.043-0.016,0.065c-0.023,0.122-0.049,0.243-0.069,0.365
	c-0.019,0.104-0.038,0.207-0.055,0.311c-0.009,0.044-0.017,0.09-0.02,0.133c-0.465,3.004-0.015,6.129,1.38,8.936
	c1.873,3.875,5.211,6.643,9.148,7.815c3.891,1.206,8.136,0.771,11.776-1.298c0.102-0.056,0.201-0.116,0.3-0.173
	c0.001,0,0.003-0.002,0.006-0.003c3.573-2.076,6.061-5.456,7.004-9.349c0.004-0.012,0.007-0.021,0.011-0.035
	c0.014-0.058,0.025-0.115,0.041-0.172C51.805,37.134,51.065,32.835,48.625,29.267z M36.207,45.055c-4.043,0-7.32-3.277-7.32-7.32
	c0-4.042,3.277-7.32,7.32-7.32s7.32,3.278,7.32,7.32C43.527,41.777,40.25,45.055,36.207,45.055z"/>
<g>
	<path fill="none" stroke="#FFFFFF" stroke-miterlimit="10" d="M24.242,28.389l5.652,5.651c0.639-1.087,1.547-1.994,2.637-2.628
		l-5.644-5.644C25.893,26.534,25.009,27.415,24.242,28.389z"/>
	<path fill="none" stroke="#FFFFFF" stroke-miterlimit="10" d="M29.859,41.368l-5.646,5.677c0.771,0.997,1.669,1.865,2.645,2.624
		l5.614-5.647C31.389,43.377,30.486,42.463,29.859,41.368z"/>
	<path fill="none" stroke="#FFFFFF" stroke-miterlimit="10" d="M42.494,34l5.537-5.537c-0.769-0.997-1.646-1.887-2.618-2.648
		l-5.57,5.572C40.938,32.015,41.85,32.917,42.494,34z"/>
	<path fill="none" stroke="#FFFFFF" stroke-miterlimit="10" d="M42.531,41.41c-0.637,1.09-1.543,1.999-2.631,2.637l5.533,5.533
		c0.997-0.771,1.883-1.65,2.642-2.625L42.531,41.41z"/>
</g>
</svg>
