<?xml version="1.0" encoding="utf-8"?>
<!-- Generator: Adobe Illustrator 15.0.0, SVG Export Plug-In . SVG Version: 6.00 Build 0)  -->
<!DOCTYPE svg PUBLIC "-//W3C//DTD SVG 1.1//EN" "http://www.w3.org/Graphics/SVG/1.1/DTD/svg11.dtd">
<svg version="1.1" id="Layer_1" xmlns="http://www.w3.org/2000/svg" xmlns:xlink="http://www.w3.org/1999/xlink" x="0px" y="0px"
	 width="102px" height="30px" viewBox="0 0 102 30" enable-background="new 0 0 102 30" xml:space="preserve">
<g>
	<g>
		<g>
			<path fill="#FFFFFF" d="M11.739,5.667c-0.374,0.788-0.226,1.435,0.332,1.445c0.557,0.01,1.312-0.62,1.686-1.408
				s0.226-1.435-0.332-1.445C12.867,4.25,12.112,4.88,11.739,5.667z M16.28,2.824c0.004,0.002,0.008,0.007,0.008,0.012
				c0,0.001,0,0.003-0.001,0.004c-0.333,0.944-0.886,2.018-1.434,2.833c-1.153,1.713-2.81,2.794-3.698,2.413
				c-0.888-0.381-0.674-2.079,0.48-3.793c0.26-0.385,0.545-0.737,0.84-1.049c0.002-0.002,0.003-0.005,0.003-0.009
				c0-0.007-0.006-0.013-0.013-0.013h-0.001c-0.363,0.05-0.731,0.122-1.102,0.215c-0.003,0-0.005,0.003-0.007,0.005
				c-3.897,4.781-5.556,10.99-5.328,16.529l0,0c0,0.008-0.005,0.014-0.013,0.014c-0.001,0-0.003,0-0.005-0.002
				c-2.298-0.926-3.977-3.146-4.152-5.956l-0.002-0.033C1.565,8.993,5.552,3.87,10.761,2.552C12.779,2.041,14.686,2.175,16.28,2.824
				z"/>
			<path fill="#FFFFFF" d="M14.807,16.312c-0.379,0.263-0.774,0.506-1.182,0.725c-0.002,0.001-0.004,0.001-0.006,0.001
				c-0.007,0-0.013-0.005-0.014-0.013c-0.076-1.2-0.334-2.363-0.782-3.332c-1.192-2.583-3.276-2.782-4.654-0.444
				c-0.842,1.432-1.226,3.482-1.123,5.452c0,0.006,0.004,0.011,0.009,0.012c1.461,0.458,3.144,0.509,4.939,0.056
				c5.201-1.326,9.18-6.442,8.891-11.438c-0.255-4.389-3.716-7.224-8.08-6.961c-0.003,0-0.006,0.002-0.008,0.004
				c-0.424,0.43-0.822,0.863-1.195,1.3C11.601,1.676,11.6,1.679,11.6,1.682c0,0.007,0.006,0.014,0.013,0.014c0,0,0.001,0,0.002,0
				c2.557-0.324,4.607,0.196,5.944,1.262c0.003,0.002,0.005,0.005,0.005,0.01c0,0.002,0,0.005-0.002,0.007
				c-4.608,6.497-4.038,10.198-2.752,13.324c0,0.002,0.001,0.003,0.001,0.006C14.812,16.305,14.81,16.309,14.807,16.312z"/>
		</g>
		<g>
			<path fill="#FFFFFF" d="M57.785,8.879c1.088,0,1.892,0.237,2.279,0.456c0.004,0.002,0.008,0.009,0.006,0.014l-0.375,1.97
				c0,0.003-0.004,0.007-0.008,0.009c-0.004,0.001-0.008,0.001-0.013,0c-0.438-0.24-1.2-0.496-2.018-0.496
				c-0.687,0-1.132,0.287-1.132,0.769c0,0.344,0.342,0.654,1.064,1.006c0.942,0.471,2.008,1.168,2.008,2.429
				c0,0.823-0.274,1.512-0.814,2.048c-0.721,0.714-1.887,1.104-3.29,1.092c-1.078-0.018-2.17-0.297-2.716-0.691
				c-0.004-0.004-0.008-0.01-0.006-0.014l0.377-1.983c0-0.004,0.004-0.007,0.008-0.009s0.009-0.002,0.013,0.001
				c0.584,0.368,1.733,0.762,2.579,0.762c0.654,0,1.098-0.303,1.098-0.787c0-0.439-0.312-0.747-1.104-1.133
				c-1.254-0.627-1.881-1.42-1.881-2.357C53.863,10.124,55.432,8.879,57.785,8.879z"/>
			<path fill="#FFFFFF" d="M46.624,5.933h2.6c0.004,0,0.008,0.002,0.01,0.005c0.003,0.003,0.004,0.007,0.003,0.011l-1.359,7.146
				c0,0.003,0.001,0.006,0.004,0.007s0.006,0,0.008-0.001l3.499-4.035c0.003-0.003,0.006-0.005,0.01-0.005h2.853
				c0.005,0,0.01,0.002,0.012,0.008c0.002,0.001,0.002,0.003,0.002,0.005c0,0.003-0.002,0.007-0.004,0.009l-3.623,4.081l2.21,4.794
				c0,0.003,0.002,0.004,0.002,0.006c0,0.003-0.002,0.005-0.002,0.007c-0.002,0.004-0.008,0.008-0.013,0.008H50.02
				c-0.005,0-0.01-0.004-0.012-0.008l-2.142-4.75c-0.001-0.003-0.004-0.005-0.007-0.004s-0.005,0.003-0.006,0.005l-0.901,4.745
				c-0.002,0.006-0.007,0.012-0.014,0.012h-2.6c-0.004,0-0.008-0.002-0.01-0.006s-0.003-0.007-0.003-0.011L46.61,5.944
				C46.612,5.937,46.617,5.933,46.624,5.933z"/>
			<path fill="#FFFFFF" d="M43.102,8.897c0.668,0,1.35,0.116,1.823,0.31c0.006,0.002,0.009,0.009,0.008,0.015l-0.404,2.122
				c-0.001,0.004-0.003,0.008-0.007,0.009c-0.004,0.002-0.009,0.002-0.012,0c-0.408-0.228-0.881-0.338-1.444-0.338
				c-1.883,0-3.004,1.641-3.004,3.223c0,1.342,0.896,1.823,1.732,1.823c0.747,0,1.382-0.162,2.189-0.56
				c0.004-0.002,0.01-0.002,0.014,0.001C44,15.504,44.001,15.509,44,15.514l-0.413,2.18c-0.001,0.004-0.003,0.007-0.007,0.01
				c-0.612,0.296-1.558,0.473-2.532,0.473c-2.286,0-3.759-1.431-3.759-3.648C37.289,11.318,39.787,8.897,43.102,8.897z"/>
			<path fill="#FFFFFF" d="M28.922,8.861c0.157,0,0.349,0.016,0.49,0.042c0.003,0,0.006,0.002,0.008,0.005
				c0.002,0.003,0.002,0.007,0.002,0.01l-0.509,2.563c-0.001,0.003-0.003,0.007-0.006,0.009c-0.002,0.002-0.006,0.002-0.01,0.002
				c-0.092-0.019-0.239-0.042-0.412-0.042c-1.796,0-2.497,1.755-2.769,3.207l-0.638,3.413c0,0.006-0.006,0.01-0.012,0.01h-2.618
				c-0.004,0-0.008-0.001-0.011-0.004c-0.002-0.003-0.003-0.008-0.002-0.012l1.71-8.994c0.001-0.006,0.006-0.01,0.013-0.01h2.303
				c0.003,0,0.007,0.001,0.01,0.005c0.002,0.002,0.003,0.005,0.003,0.008l-0.116,0.607c-0.109,0.579-0.287,0.92-0.4,1.082
				l-0.017,0.029c-0.04,0.085,0.023,0.174,0.091,0.206c0.068,0.032,0.178,0.024,0.218-0.062l0.011-0.033
				c0.051-0.19,0.156-0.603,0.511-1.002C27.384,9.228,28.124,8.861,28.922,8.861z"/>
			<path fill="#FFFFFF" d="M88.855,12.613c0.012,0,0.023-0.001,0.035-0.002c1.043-0.044,1.67-0.205,1.978-0.509
				c0.146-0.145,0.217-0.322,0.217-0.538c0-0.461-0.381-0.751-0.95-0.751c-0.857,0-1.48,0.526-1.824,1.156
				c-0.01,0.018-0.02,0.037-0.028,0.054c-0.249,0.467-0.328,0.518-0.552,0.659l-0.028,0.019c-0.072,0.061-0.05,0.167,0,0.226
				c0.049,0.057,0.147,0.097,0.22,0.037l0.023-0.025C88.126,12.723,88.165,12.643,88.855,12.613z M90.462,8.879
				c1.861,0,3.104,1.082,3.104,2.686c0,0.742-0.241,1.351-0.717,1.814c-0.802,0.78-2.246,1.172-4.418,1.186l0,0
				c-0.521,0-0.64-0.263-0.73-0.438l-0.02-0.027c-0.059-0.075-0.168-0.059-0.229-0.012c-0.061,0.046-0.1,0.148-0.041,0.222
				l0.023,0.025c0.24,0.218,0.323,0.267,0.424,0.619c0.043,0.177,0.115,0.356,0.211,0.492c0.344,0.433,0.949,0.668,1.699,0.668
				c1.099,0,2.049-0.267,3.084-0.863c0.004-0.002,0.01-0.002,0.015,0.001c0.004,0.003,0.006,0.008,0.005,0.013l-0.417,2.191
				c0,0.004-0.003,0.007-0.007,0.009c-1.26,0.641-2.737,0.71-3.314,0.71c-2.461,0-3.867-1.366-3.867-3.757
				c0-1.377,0.506-2.758,1.387-3.787C87.622,9.501,88.975,8.879,90.462,8.879z"/>
			<path fill="#FFFFFF" d="M63.973,16.186c1.389,0,2.408-1.971,2.408-3.711c0-0.42-0.1-1.441-1.068-1.441
				c-0.984,0-1.815,1.123-2.139,2.824C63.062,14.438,62.755,16.186,63.973,16.186z M63.787,9.022l-0.078,0.409
				c-0.122,0.646-0.314,0.893-0.439,1.046l-0.02,0.028c-0.046,0.083,0.005,0.173,0.07,0.209c0.064,0.037,0.184,0.039,0.229-0.043
				l0.014-0.031c0.063-0.187,0.17-0.565,0.58-0.959c0.604-0.518,1.34-0.802,2.104-0.802c1.75,0,2.886,1.327,2.886,3.395
				c0,2.169-1.042,4.393-2.918,5.393c-1.457,0.776-2.788,0.603-3.438,0.092c-0.157-0.123-0.195-0.442-0.213-0.569l-0.008-0.033
				c-0.029-0.09-0.137-0.125-0.219-0.096c-0.07,0.024-0.136,0.11-0.107,0.2l0.015,0.031c0.12,0.212,0.202,0.366,0.177,0.56
				l-0.566,2.991c0,0.007-0.006,0.011-0.013,0.011h-2.618c-0.004,0-0.008,0-0.011-0.004c-0.002-0.004-0.003-0.008-0.003-0.012
				L61.46,9.016c0.001-0.006,0.006-0.011,0.013-0.011l2.303,0.002c0.004,0,0.008,0.001,0.011,0.004
				C63.787,9.015,63.788,9.018,63.787,9.022z"/>
			<path fill="#FFFFFF" d="M83.93,8.897c0.666,0,1.348,0.116,1.821,0.31c0.006,0.002,0.009,0.009,0.008,0.015l-0.403,2.122
				c-0.002,0.004-0.004,0.008-0.008,0.009c-0.004,0.002-0.01,0.002-0.013,0c-0.408-0.228-0.881-0.338-1.444-0.338
				c-1.882,0-3.004,1.641-3.004,3.223c0,1.342,0.896,1.823,1.732,1.823c0.747,0,1.382-0.162,2.188-0.56
				c0.004-0.002,0.01-0.002,0.014,0.001c0.006,0.003,0.007,0.008,0.007,0.014l-0.413,2.18c-0.002,0.004-0.004,0.007-0.008,0.01
				c-0.612,0.296-1.559,0.473-2.532,0.473c-2.286,0-3.759-1.431-3.759-3.648C78.115,11.318,80.613,8.897,83.93,8.897z"/>
			<path fill="#FFFFFF" d="M73.225,11.417c-0.711,0.711-1.244,2.046-1.244,3.109c0,0.932,0.347,1.514,0.947,1.514
				c0.963,0,1.793-1.006,2.077-2.48c0.063-0.329,0.128-0.665,0.175-0.962c0.047-0.298,0.076-0.561,0.067-0.744
				c-0.03-0.629-0.358-0.968-0.946-0.968C73.941,10.886,73.568,11.072,73.225,11.417z M74.202,17.979l0.079-0.397
				c0.074-0.36,0.359-0.853,0.471-1.015l0.018-0.029c0.039-0.086-0.019-0.188-0.086-0.219c-0.084-0.034-0.188-0.008-0.228,0.08
				l-0.011,0.031c-0.047,0.191-0.15,0.622-0.559,1.01c-0.521,0.475-1.24,0.756-2.025,0.756c-1.758,0-2.553-1.561-2.553-3.122
				c-0.002-1.774,0.695-3.531,1.862-4.698c0.978-0.979,2.24-1.496,3.651-1.496c1.072,0.004,1.865,0.315,2.363,0.918
				c0.736,0.893,0.676,2.232,0.492,3.206l-0.951,4.981c-0.002,0.005-0.006,0.01-0.014,0.01h-2.499c-0.005,0-0.009-0.002-0.011-0.005
				C74.202,17.986,74.201,17.982,74.202,17.979z"/>
			<path fill="#FFFFFF" d="M32.397,11.417c-0.71,0.711-1.244,2.046-1.243,3.109c0,0.932,0.346,1.514,0.948,1.514
				c0.962,0,1.792-1.006,2.077-2.48c0.064-0.329,0.128-0.665,0.175-0.962c0.047-0.298,0.076-0.561,0.067-0.744
				c-0.03-0.629-0.358-0.968-0.946-0.968C33.116,10.886,32.743,11.072,32.397,11.417z M33.376,17.979l0.079-0.397
				c0.075-0.36,0.361-0.853,0.471-1.015l0.018-0.029c0.038-0.086-0.018-0.188-0.087-0.219c-0.083-0.034-0.187-0.008-0.226,0.08
				L33.62,16.43c-0.047,0.191-0.15,0.622-0.558,1.01c-0.521,0.475-1.241,0.756-2.026,0.756c-1.758,0-2.552-1.561-2.553-3.122
				c-0.001-1.774,0.696-3.531,1.863-4.698c0.978-0.979,2.24-1.496,3.65-1.496c1.074,0.004,1.867,0.315,2.365,0.918
				c0.736,0.893,0.676,2.232,0.492,3.206l-0.952,4.981c-0.001,0.005-0.006,0.01-0.013,0.01H33.39c-0.004,0-0.008-0.002-0.011-0.005
				S33.375,17.982,33.376,17.979z"/>
			<path fill="#FFFFFF" d="M93.577,17.064c-0.05,0.545,0.349,0.98,0.894,0.98c0.555,0,1.049-0.454,1.1-1.009
				c0.049-0.547-0.35-0.983-0.894-0.983C94.122,16.055,93.627,16.508,93.577,17.064z M93.421,17.05
				c0.058-0.636,0.62-1.153,1.256-1.153c0.638,0,1.106,0.518,1.05,1.153c-0.058,0.638-0.619,1.152-1.256,1.152
				C93.833,18.202,93.363,17.688,93.421,17.05z M94.32,16.37c0.002-0.003,0.004-0.005,0.006-0.005h0.289l0.003,0.001
				c0.073,0.001,0.123,0.001,0.159,0.004c0.052,0.004,0.09,0.012,0.129,0.024c0.146,0.049,0.23,0.166,0.23,0.312
				c0,0.025-0.004,0.053-0.009,0.08c-0.032,0.182-0.147,0.329-0.36,0.388l0.187,0.546c0,0.002,0,0.002,0,0.002
				c0,0.002,0,0.002-0.001,0.004s-0.003,0.002-0.005,0.002H94.76c-0.003,0-0.005-0.002-0.006-0.004l-0.176-0.521l-0.116,0.002
				h-0.004H94.33l-0.098,0.519c0,0.002-0.002,0.004-0.006,0.004h-0.154c-0.002,0-0.004,0-0.006-0.002c0-0.002,0-0.002,0-0.004
				l0.098-0.521l0.001-0.008l0.078-0.408L94.32,16.37z M94.585,16.532h-0.127l-0.048,0.256l-0.047,0.253h0.123h0.015
				c0.063-0.001,0.106-0.002,0.142-0.004c0.037-0.003,0.063-0.008,0.096-0.02c0.119-0.033,0.203-0.121,0.225-0.232
				c0.021-0.11-0.029-0.197-0.136-0.23c-0.027-0.011-0.052-0.016-0.089-0.018c-0.033-0.003-0.075-0.003-0.139-0.004L94.585,16.532z"
				/>
		</g>
	</g>
	<g>
		<path fill="#FFFFFF" d="M42.274,28.318h-0.986c-0.004,0-0.008,0-0.01-0.004c-0.002-0.002-0.003-0.006-0.002-0.01l1.13-5.949
			c0.001-0.008,0.006-0.012,0.013-0.012h0.986c0.004,0,0.007,0.002,0.01,0.006c0.002,0.002,0.003,0.006,0.002,0.01l-1.13,5.949
			C42.286,28.314,42.28,28.318,42.274,28.318z"/>
		<path fill="#FFFFFF" d="M76.273,28.318h-0.629c-0.004,0-0.008,0-0.01-0.004c-0.003-0.002-0.004-0.006-0.003-0.01l0.456-2.389
			c0.021-0.141,0.03-0.334,0.02-0.471c-0.043-0.543-0.39-0.866-0.928-0.866c-0.615,0-1.189,0.58-1.339,1.351l-0.44,2.379
			c0,0.006-0.006,0.01-0.012,0.01H72.76c-0.004,0-0.008,0-0.01-0.004c-0.003-0.002-0.004-0.006-0.003-0.01l0.448-2.389
			c0.027-0.13,0.039-0.322,0.027-0.471c-0.043-0.534-0.4-0.866-0.937-0.866c-0.615,0-1.19,0.58-1.339,1.351L70.5,28.311
			c-0.001,0.006-0.007,0.01-0.014,0.01h-0.627c-0.004,0-0.008-0.002-0.01-0.004c-0.004-0.004-0.004-0.008-0.004-0.012l0.795-4.214
			c0-0.006,0.006-0.011,0.012-0.011h0.629c0.004,0,0.008,0.002,0.01,0.005c0.003,0.003,0.004,0.008,0.003,0.011l-0.116,0.635
			c0.366-0.444,0.736-0.738,1.318-0.738c0.609,0,1.085,0.349,1.275,0.935c0.358-0.61,0.918-0.935,1.617-0.935
			c0.777,0,1.342,0.529,1.403,1.314c0.013,0.161-0.019,0.351-0.045,0.532c-0.007,0.041-0.013,0.083-0.019,0.123l-0.443,2.349
			C76.285,28.314,76.279,28.318,76.273,28.318z"/>
		<path fill="#FFFFFF" d="M90.664,28.318h-0.628c-0.004,0-0.009,0-0.011-0.004c-0.002-0.002-0.004-0.006-0.002-0.01l0.447-2.389
			c0.027-0.129,0.039-0.32,0.027-0.471c-0.042-0.543-0.417-0.866-1.001-0.866c-0.66,0-1.25,0.567-1.404,1.351l-0.448,2.379
			c0,0.006-0.006,0.01-0.013,0.01h-0.628c-0.004,0-0.008,0-0.01-0.004c-0.003-0.002-0.004-0.006-0.003-0.01l0.793-4.215
			c0.002-0.006,0.007-0.011,0.013-0.011h0.629c0.004,0,0.008,0.002,0.01,0.005s0.004,0.008,0.004,0.012l-0.117,0.635
			c0.308-0.373,0.715-0.739,1.384-0.739c0.823,0,1.397,0.517,1.461,1.315c0.013,0.166-0.006,0.379-0.056,0.654l-0.436,2.348
			C90.676,28.314,90.67,28.318,90.664,28.318z"/>
		<path fill="#FFFFFF" d="M91.878,29.648c-0.344,0-0.646-0.094-0.951-0.297c-0.006-0.004-0.008-0.012-0.004-0.019l0.306-0.47
			c0.002-0.004,0.006-0.006,0.01-0.006c0.004-0.002,0.007,0,0.01,0.002c0.158,0.115,0.443,0.207,0.652,0.207
			c0.379,0,0.677-0.221,1.024-0.764l-1.096-4.207c-0.001-0.005,0-0.009,0.003-0.012c0.002-0.004,0.006-0.006,0.01-0.006h0.652
			c0.006,0,0.012,0.005,0.013,0.011l0.854,3.487l1.973-3.49c0.003-0.005,0.007-0.008,0.012-0.008h0.711
			c0.004,0,0.008,0.003,0.01,0.008c0.002,0.003,0.002,0.01,0,0.014l-2.541,4.356C93.01,29.305,92.533,29.648,91.878,29.648z"/>
		<path fill="#FFFFFF" d="M62.6,28.418c-0.932,0-1.922-0.637-2.014-1.854c-0.05-0.678,0.18-1.346,0.631-1.836
			c0.434-0.469,1.039-0.736,1.662-0.736c1.021,0,1.542,0.621,1.762,0.992c0.004,0.006,0.002,0.014-0.005,0.018l-0.479,0.318
			c-0.006,0.003-0.014,0.002-0.018-0.004c-0.234-0.348-0.588-0.744-1.258-0.744c-0.418,0-0.83,0.191-1.13,0.525
			c-0.356,0.387-0.537,0.913-0.497,1.448c0.062,0.849,0.721,1.291,1.337,1.291c0.437,0,0.806-0.17,1.193-0.55
			c0.003-0.003,0.006-0.004,0.009-0.004l0,0c0.004,0,0.007,0.001,0.01,0.004l0.396,0.406c0.005,0.006,0.005,0.015,0,0.02
			C63.727,28.193,63.218,28.418,62.6,28.418z"/>
		<path fill="#FFFFFF" d="M50.023,28.41c-0.805,0-1.365-0.512-1.427-1.301c-0.019-0.23,0.027-0.514,0.071-0.762l0.443-2.347
			c0.001-0.007,0.007-0.011,0.013-0.011h0.985c0.005,0,0.009,0.002,0.011,0.005s0.004,0.007,0.003,0.011l-0.456,2.389
			c-0.022,0.131-0.032,0.308-0.023,0.428c0.033,0.423,0.318,0.664,0.782,0.664c0.534,0,0.96-0.418,1.084-1.064l0.462-2.42
			c0.002-0.007,0.006-0.011,0.014-0.011h0.986c0.004,0,0.008,0.002,0.01,0.005s0.004,0.007,0.002,0.011l-0.812,4.304
			c-0.001,0.006-0.007,0.01-0.013,0.01h-0.986c-0.004,0-0.008-0.002-0.01-0.004c-0.002-0.004-0.003-0.008-0.003-0.012l0.095-0.51
			C50.979,28.089,50.592,28.41,50.023,28.41z"/>
		<path fill="#FFFFFF" d="M39.085,28.418c-1.166,0-2.04-0.793-2.125-1.928c-0.051-0.688,0.17-1.336,0.624-1.827
			c0.447-0.483,1.079-0.763,1.733-0.763c0.991,0,1.539,0.535,1.824,0.984c0.003,0.006,0.002,0.014-0.003,0.018l-0.726,0.521
			c-0.002,0.002-0.007,0.004-0.01,0.002c-0.003,0-0.006-0.003-0.008-0.006c-0.231-0.331-0.523-0.638-1.095-0.638
			c-0.327,0-0.656,0.151-0.901,0.42c-0.307,0.343-0.464,0.808-0.429,1.276c0.046,0.617,0.502,1.063,1.084,1.063
			c0.389,0,0.694-0.138,1.053-0.478c0.002-0.002,0.005-0.004,0.009-0.004c0.002-0.002,0.007,0.002,0.01,0.004l0.569,0.645
			c0.005,0.006,0.004,0.014-0.001,0.02C40.345,28.07,39.881,28.418,39.085,28.418z"/>
		<path fill="#FFFFFF" d="M33.804,28.318h-0.985c-0.004,0-0.008,0-0.01-0.004c-0.002-0.002-0.003-0.006-0.002-0.01l0.448-2.389
			c0.028-0.134,0.041-0.301,0.03-0.43c-0.033-0.422-0.321-0.663-0.789-0.663c-0.535,0-0.96,0.418-1.084,1.065l-0.454,2.42
			c-0.001,0.006-0.007,0.01-0.013,0.01H29.95c-0.004,0-0.008-0.002-0.01-0.004c-0.002-0.004-0.003-0.008-0.002-0.012L30.749,24
			c0.001-0.007,0.007-0.011,0.013-0.011h0.986c0.004,0,0.008,0.002,0.01,0.005s0.003,0.007,0.002,0.011l-0.095,0.502
			c0.28-0.29,0.671-0.606,1.241-0.606c0.8,0,1.356,0.51,1.418,1.3c0.018,0.231-0.027,0.515-0.071,0.761l-0.436,2.348
			C33.816,28.314,33.811,28.318,33.804,28.318z"/>
		<path fill="#FFFFFF" d="M7.397,28.318H6.77c-0.004,0-0.008,0-0.01-0.004c-0.002-0.002-0.003-0.006-0.002-0.01l0.448-2.389
			c0.028-0.132,0.04-0.324,0.028-0.471C7.19,24.904,6.816,24.58,6.231,24.58c-0.659,0-1.25,0.566-1.404,1.35l-0.448,2.381
			c-0.001,0.006-0.007,0.01-0.013,0.01H3.738c-0.004,0-0.008-0.002-0.01-0.004c-0.002-0.004-0.003-0.008-0.002-0.012l1.13-5.949
			c0.001-0.006,0.006-0.01,0.013-0.01h0.627c0.004,0,0.008,0.002,0.01,0.004c0.002,0.004,0.003,0.008,0.002,0.012L5.057,24.73
			c0.307-0.373,0.714-0.738,1.383-0.738c0.825,0,1.397,0.517,1.46,1.314c0.014,0.168-0.004,0.377-0.055,0.655l-0.434,2.349
			C7.409,28.314,7.404,28.318,7.397,28.318z"/>
		<path fill="#FFFFFF" d="M2.179,28.395c-0.648,0-1.06-0.315-1.1-0.845c-0.011-0.136-0.001-0.297,0.024-0.442l0.472-2.445H1.013
			c-0.004,0-0.008-0.002-0.01-0.005S1,24.648,1,24.646l0.105-0.556c0.001-0.006,0.007-0.011,0.013-0.011h0.575l0.244-1.26
			c0.001-0.008,0.007-0.012,0.013-0.012h0.618c0.004,0,0.008,0.002,0.01,0.004c0.002,0.004,0.003,0.008,0.002,0.013L2.337,24.08
			h1.309c0.004,0,0.008,0.002,0.01,0.005c0.002,0.003,0.003,0.008,0.003,0.013L3.555,24.65c-0.001,0.006-0.007,0.011-0.013,0.011
			H2.228l-0.467,2.418c-0.008,0.088-0.016,0.215-0.009,0.306c0.025,0.348,0.338,0.42,0.596,0.42c0.191,0,0.391-0.043,0.595-0.129
			c0.004-0.002,0.009-0.001,0.014,0.002c0.004,0.004,0.006,0.008,0.004,0.014L2.85,28.261c-0.001,0.005-0.004,0.009-0.008,0.011
			C2.637,28.355,2.438,28.395,2.179,28.395z"/>
		<path fill="#FFFFFF" d="M45.708,28.418c-0.6,0-1.127-0.193-1.524-0.561C43.8,27.503,43.564,27,43.52,26.441
			c-0.051-0.651,0.176-1.303,0.622-1.787c0.439-0.485,1.045-0.754,1.703-0.754c0.6,0,1.127,0.195,1.525,0.562
			c0.384,0.355,0.62,0.86,0.665,1.423c0.051,0.654-0.175,1.304-0.623,1.778C46.971,28.15,46.366,28.418,45.708,28.418z
			 M45.854,24.783c-0.335,0-0.658,0.146-0.911,0.412c-0.29,0.307-0.456,0.781-0.422,1.212c0.055,0.694,0.505,1.129,1.177,1.129
			c0.347,0,0.679-0.15,0.911-0.412c0.29-0.308,0.456-0.782,0.422-1.212C46.976,25.216,46.525,24.783,45.854,24.783z"/>
		<path fill="#FFFFFF" d="M67.098,28.418c-1.135,0-1.988-0.783-2.076-1.902c-0.053-0.654,0.176-1.303,0.623-1.779
			c0.437-0.473,1.045-0.744,1.67-0.744c1.14,0,1.998,0.777,2.086,1.895c0.05,0.643-0.178,1.293-0.623,1.786
			C68.34,28.146,67.729,28.418,67.098,28.418z M67.316,24.57c-0.428,0-0.834,0.188-1.146,0.525
			c-0.346,0.375-0.527,0.898-0.488,1.399c0.064,0.821,0.605,1.333,1.414,1.333c0.432,0,0.84-0.184,1.146-0.518
			c0.345-0.375,0.527-0.897,0.488-1.399C68.665,25.085,68.124,24.57,67.316,24.57z"/>
		<path fill="#FFFFFF" d="M77.68,29.624h-0.629c-0.004,0-0.008-0.002-0.01-0.005s-0.004-0.008-0.003-0.012l1.042-5.518
			c0.001-0.006,0.006-0.011,0.013-0.011h0.628c0.004,0,0.008,0.002,0.01,0.005s0.004,0.008,0.002,0.012l-0.127,0.674
			c0.433-0.523,0.927-0.778,1.51-0.778c0.99,0,1.74,0.737,1.824,1.796c0.058,0.734-0.174,1.441-0.635,1.941
			c-0.408,0.443-0.953,0.688-1.537,0.688c-0.922,0-1.408-0.545-1.656-1.017l-0.42,2.211C77.689,29.619,77.686,29.624,77.68,29.624z
			 M79.979,24.57c-0.439,0-0.875,0.205-1.192,0.56c-0.365,0.396-0.552,0.909-0.513,1.407c0.059,0.754,0.646,1.3,1.394,1.3
			c0.419,0,0.812-0.172,1.108-0.485c0.352-0.388,0.525-0.937,0.48-1.504C81.195,25.084,80.684,24.57,79.979,24.57z"/>
		<path fill="#FFFFFF" d="M83.885,28.409c-0.648,0-1.377-0.368-1.439-1.177c-0.032-0.398,0.08-0.748,0.324-1.014
			c0.312-0.339,0.823-0.525,1.442-0.525c0.457,0,0.949,0.074,1.506,0.226l0.015-0.083c0.024-0.129,0.035-0.281,0.026-0.389
			c-0.043-0.551-0.457-0.844-1.194-0.844c-0.489,0-0.865,0.111-1.168,0.22c-0.004,0.001-0.008,0-0.011-0.001
			c-0.004-0.002-0.007-0.004-0.008-0.008l-0.146-0.521c-0.002-0.007,0.002-0.014,0.009-0.016c0.457-0.176,0.882-0.254,1.378-0.254
			c1.061,0,1.704,0.479,1.771,1.315c0.014,0.175-0.002,0.382-0.045,0.582l-0.449,2.388c0,0.006-0.006,0.01-0.013,0.01h-0.61
			c-0.004,0-0.008,0-0.01-0.004c-0.003-0.002-0.005-0.006-0.004-0.01l0.118-0.609C84.982,28.169,84.48,28.409,83.885,28.409z
			 M84.271,26.186c-0.416,0-0.748,0.119-0.957,0.347c-0.158,0.165-0.233,0.381-0.215,0.625c0.035,0.448,0.405,0.737,0.941,0.737
			c0.74,0,1.402-0.535,1.543-1.244l0.057-0.281C85.218,26.25,84.732,26.186,84.271,26.186z"/>
		<path fill="#FFFFFF" d="M55.188,28.41c-0.475,0-0.916-0.178-1.244-0.497c-0.344-0.336-0.549-0.806-0.592-1.356
			c-0.059-0.75,0.166-1.442,0.635-1.949c0.412-0.448,0.984-0.705,1.566-0.705c0.658,0,1.153,0.271,1.512,0.832l0.449-2.379
			c0-0.006,0.006-0.01,0.012-0.01h0.986c0.004,0,0.008,0.002,0.012,0.004c0.002,0.004,0.002,0.008,0.002,0.012l-1.123,5.949
			c0,0.006-0.006,0.01-0.012,0.01h-0.986c-0.004,0-0.008-0.002-0.01-0.004c-0.004-0.004-0.004-0.008-0.004-0.012l0.102-0.523
			C56.093,28.21,55.678,28.41,55.188,28.41z M55.732,24.775c-0.348,0-0.674,0.146-0.918,0.41c-0.304,0.33-0.455,0.804-0.416,1.303
			c0.051,0.636,0.48,1.048,1.098,1.048c0.361,0,0.714-0.162,0.966-0.443c0.312-0.34,0.472-0.794,0.437-1.245
			C56.85,25.216,56.369,24.775,55.732,24.775z"/>
		<path fill="#FFFFFF" d="M20.754,29.624H19.76c-0.004,0-0.008-0.002-0.01-0.005s-0.003-0.008-0.003-0.012l1.059-5.605
			c0.001-0.007,0.007-0.011,0.013-0.011h0.986c0.004,0,0.007,0.002,0.01,0.005c0.002,0.003,0.003,0.007,0.002,0.011l-0.101,0.525
			c0.413-0.437,0.816-0.632,1.304-0.632c1.011,0,1.75,0.746,1.837,1.854c0.059,0.75-0.167,1.442-0.634,1.95
			c-0.413,0.447-0.981,0.704-1.56,0.704c-0.654,0-1.165-0.28-1.519-0.833l-0.377,2.037C20.766,29.619,20.761,29.624,20.754,29.624z
			 M22.72,24.775c-0.364,0-0.709,0.156-0.974,0.442c-0.308,0.334-0.463,0.788-0.427,1.246c0.048,0.62,0.535,1.071,1.156,1.071
			c0.352,0,0.686-0.15,0.919-0.412c0.308-0.325,0.455-0.787,0.415-1.303C23.759,25.188,23.332,24.775,22.72,24.775z"/>
		<path fill="#FFFFFF" d="M27.55,28.418c-0.591,0-1.102-0.177-1.476-0.511c-0.375-0.335-0.596-0.813-0.641-1.384
			c-0.054-0.683,0.188-1.388,0.646-1.885c0.438-0.477,1.041-0.738,1.696-0.738c0.531,0,0.988,0.168,1.323,0.488
			c0.316,0.301,0.503,0.715,0.542,1.194c0.024,0.306-0.017,0.623-0.117,0.918c-0.001,0.005-0.007,0.009-0.012,0.009h-3.115
			c0.059,0.674,0.502,1.074,1.188,1.074c0.388,0,0.695-0.12,1.06-0.413c0.005-0.004,0.013-0.003,0.019,0.002l0.522,0.627
			c0.004,0.007,0.003,0.015-0.002,0.019C28.733,28.223,28.199,28.418,27.55,28.418z M26.453,25.833h2.206
			c0.018-0.077,0.023-0.179,0.015-0.287c-0.04-0.508-0.379-0.812-0.907-0.812c-0.37,0-0.698,0.146-0.951,0.42
			C26.647,25.335,26.523,25.568,26.453,25.833z"/>
		<path fill="#FFFFFF" d="M10.561,28.418c-1.124,0-1.935-0.727-2.021-1.805c-0.054-0.692,0.19-1.406,0.653-1.908
			c0.43-0.467,0.986-0.714,1.608-0.714c0.507,0,0.943,0.166,1.262,0.479c0.292,0.288,0.472,0.695,0.508,1.146
			c0.021,0.266-0.007,0.536-0.084,0.804c-0.001,0.006-0.007,0.01-0.013,0.01H9.186c-0.002,0.053,0.002,0.105,0.006,0.156
			c0.061,0.766,0.593,1.26,1.358,1.26c0.561,0,0.905-0.197,1.248-0.494c0.002-0.002,0.005-0.004,0.008-0.004
			c0.002,0.002,0.008,0.002,0.01,0.006l0.358,0.416c0.005,0.004,0.004,0.014,0,0.019C11.849,28.081,11.372,28.418,10.561,28.418z
			 M9.235,25.932h2.687c0.018-0.078,0.022-0.184,0.012-0.312c-0.041-0.52-0.357-1.072-1.123-1.072c-0.425,0-0.813,0.174-1.124,0.502
			C9.474,25.279,9.317,25.584,9.235,25.932z"/>
		<path fill="#FFFFFF" d="M17.349,28.418c-0.6,0-1.127-0.193-1.525-0.561c-0.384-0.354-0.62-0.857-0.664-1.416
			c-0.051-0.651,0.175-1.303,0.622-1.787c0.439-0.485,1.043-0.754,1.703-0.754c0.601,0,1.128,0.195,1.525,0.562
			c0.384,0.355,0.62,0.86,0.664,1.423c0.051,0.653-0.175,1.302-0.623,1.778C18.612,28.15,18.007,28.418,17.349,28.418z
			 M17.495,24.783c-0.334,0-0.658,0.146-0.911,0.412c-0.29,0.306-0.456,0.781-0.422,1.212c0.055,0.694,0.506,1.129,1.178,1.129
			c0.346,0,0.679-0.15,0.911-0.412c0.29-0.306,0.455-0.781,0.422-1.212C18.617,25.216,18.166,24.783,17.495,24.783z"/>
	</g>
</g>
</svg>
